<svg xmlns="http://www.w3.org/2000/svg" xmlns:xlink="http://www.w3.org/1999/xlink" width="23" height="17" viewBox="0 0 23 17">
    <defs>
        <rect id="a" width="23" height="16.43" rx="2"/>
        <path id="c" d="M3.833 3.286L0 0h.548L4.38 2.738h1.095L9.857 0v.223c0 .18-.127.416-.276.522L6.024 3.286v1.095l3.582 3.07c.139.12.102.216-.074.216h.102c-.179 0-.452-.09-.6-.197L5.476 4.93H4.381L0 7.667V7.12L3.833 4.38V3.286z"/>
        <linearGradient id="d" x1="50%" x2="50%" y1="0%" y2="100%">
            <stop offset="0%" stop-color="#FFF"/>
            <stop offset="100%" stop-color="#F0F0F0"/>
        </linearGradient>
        <linearGradient id="e" x1="50%" x2="50%" y1="0%" y2="100%">
            <stop offset="0%" stop-color="#FF2E3B"/>
            <stop offset="100%" stop-color="#FC0D1B"/>
        </linearGradient>
    </defs>
    <g fill="none" fill-rule="evenodd">
        <mask id="b" fill="#fff">
            <use xlink:href="#a"/>
        </mask>
        <use fill="#FFF" xlink:href="#a"/>
        <path fill="#0A17A7" d="M0 0h23v16.43H0z" mask="url(#b)"/>
        <g mask="url(#b)">
            <use fill="#FF2E3B" xlink:href="#c"/>
            <path stroke="#FFF" stroke-width=".667" d="M.44.333h.108L.354.271.44.333zM.334 7.291V7.12l-.14.27.14-.099zM3.5 3.44L-.901-.333H.548l.193.062 3.747 2.676h.893l4.81-3.006v.824c0 .287-.18.624-.416.793L6.357 3.458v.77l3.466 2.97c.343.295.22.733-.189.795v.008c-.017 0-.035 0-.053-.002a.71.71 0 0 1-.049.002v-.006a1.589 1.589 0 0 1-.692-.253l-3.47-2.48h-.893L-.333 8.27v-1.32L3.5 4.208v-.77zm6.134 4.554A.65.65 0 0 1 9.581 8c-.016 0-.032-.002-.049-.004v-.661h.102v.66z"/>
        </g>
        <path fill="url(#d)" d="M0 2.738V4.93h3.833V7.55a.67.67 0 0 0 .67.665h.852a.67.67 0 0 0 .669-.665V4.929h3.715a.67.67 0 0 0 .666-.67v-.851a.67.67 0 0 0-.666-.67H6.024V0h-2.19v2.738H0z" mask="url(#b)"/>
        <path fill="url(#e)" d="M0 3.286h4.381V0h1.095v3.286h4.381v1.095h-4.38v3.286H4.38V4.381H0z" mask="url(#b)"/>
        <path fill="#FFF" d="M4.929 13.418l-.966.508.184-1.076-.78-.761 1.079-.157.483-.979.482.979 1.08.157-.781.761.184 1.076zM16.429 14.24l-.775.226.227-.774-.227-.775.775.227.774-.227-.227.775.227.774zM16.429 3.834l-.775.227.227-.775-.227-.775.775.227.774-.227-.227.775.227.775zM19.714 7.12l-.774.227.227-.775-.227-.775.774.227.775-.227-.227.775.227.775zM13.143 8.215l-.775.227.227-.775-.227-.774.775.227.774-.227-.227.774.227.775zM18.071 9.584l-.387.114.114-.388-.114-.387.387.114.388-.114-.114.387.114.388z" mask="url(#b)"/>
    </g>
</svg>
