<svg xmlns="http://www.w3.org/2000/svg" xmlns:xlink="http://www.w3.org/1999/xlink" width="23" height="17" viewBox="0 0 23 17">
    <defs>
        <rect id="a" width="22.4" height="16.43" rx="2"/>
    </defs>
    <g fill="none" fill-rule="evenodd">
        <mask id="b" fill="#fff">
            <use xlink:href="#a"/>
        </mask>
        <use fill="#FFF" xlink:href="#a"/>
        <rect width="21.9" height="15.93" x=".25" y=".25" stroke="#F5F5F5" stroke-width=".5" rx="2"/>
        <path fill="#FF3131" d="M16 0h6.4v16.43H16zM0 0h6.4v16.43H0zM12.493 7.983c-.125.128-.198.085-.16-.104l.467-2.402-1.067.547-.533-1.643-.533 1.643L9.6 5.477l.468 2.402c.036.186-.033.235-.16.104l-.615-.631a.316.316 0 0 0-.456.003l-.304.312-1.066-.547L8 8.215l-.304.312a.344.344 0 0 0 .007.478l1.364 1.4h1.6l.266 1.644h.534l.266-1.643h1.6l1.364-1.4a.345.345 0 0 0 .007-.479l-.304-.312.533-1.095-1.066.547-.304-.312a.314.314 0 0 0-.456-.003l-.614.63z" mask="url(#b)"/>
    </g>
</svg>
