<svg xmlns="http://www.w3.org/2000/svg" xmlns:xlink="http://www.w3.org/1999/xlink" width="23" height="17" viewBox="0 0 23 17">
    <defs>
        <rect id="a" width="23" height="16.43" rx="2"/>
    </defs>
    <g fill="none" fill-rule="evenodd">
        <mask id="b" fill="#fff">
            <use xlink:href="#a"/>
        </mask>
        <use fill="#FFF" xlink:href="#a"/>
        <path fill="#F1361D" d="M0 0h23v16.43H0z" mask="url(#b)"/>
        <path fill="#FFDC42" d="M11.094 4.91l-.69.42.02-.807-.42-.69.807.02.689-.42-.019.807.42.689-.807-.019zM9.07 2.683l-.795-.136.543-.596.136-.796.597.543.795.136-.543.597-.136.795-.597-.543zm.4 7.151l-.674.443-.01-.807-.443-.674.807-.01.675-.443.01.807.443.675-.807.01zm1.388-2.175l-.802.089.358-.723-.089-.803.723.358.803-.089-.358.724.089.802-.724-.358zM5.476 6.758L3.545 8.135l.712-2.262L2.351 4.46l2.372-.021.753-2.25.753 2.25 2.372.021-1.906 1.412.712 2.262z" mask="url(#b)"/>
    </g>
</svg>
