<?xml version="1.0" encoding="UTF-8"?>
<svg width="23px" height="17px" viewBox="0 0 23 17" version="1.1" xmlns="http://www.w3.org/2000/svg" xmlns:xlink="http://www.w3.org/1999/xlink">
    <!-- Generator: Sketch 57.1 (83088) - https://sketch.com -->
    <title>Saidi Arabia</title>
    <desc>Created with Sketch.</desc>
    <g id="Page-1" stroke="none" stroke-width="1" fill="none" fill-rule="evenodd">
        <g id="v" transform="translate(-87.000000, -390.000000)">
            <g id="Saidi-Arabia" transform="translate(87.000000, 390.000000)">
                <g id="Marocco" fill="#006C35">
                    <rect id="Background" x="0" y="0" width="23" height="17" rx="2"></rect>
                </g>
                <g id="Group" transform="translate(6.000000, 5.000000)" fill="#FFFFFF">
                    <path d="M8.99358782,6.9999855 C8.99332116,7.00009217 8.99284116,7.00067883 8.99260116,7.00083883 C8.79940116,7.04267891 8.80540116,7.21174588 8.92942782,7.28625268 C6.88924116,7.28625268 3.75838782,7.25702596 3.08694782,7.25702596 C2.71129449,7.25702596 1.52286782,7.21918589 1.49998782,7.21918589 C1.75486782,7.53379978 2.12406782,7.59790657 2.60718782,7.60433324 L8.90697449,7.59486656 C8.82204116,7.72217345 8.91470782,7.92729382 8.98132116,7.96454722 C8.98273449,7.96534722 8.98500116,7.96652056 8.98641449,7.96713389 C8.98897808,7.96830737 8.99172523,7.96916922 8.99457449,7.9696939 C8.99537449,7.9698539 8.99686782,7.9696139 8.99761449,7.9696939 C9.07673449,7.98542726 9.11153449,7.9370805 9.13817449,7.90177377 C9.26652116,7.91129379 9.98878782,7.92009381 10.0548945,7.90092044 C10.0551078,7.90084044 10.0556945,7.90012044 10.0558812,7.9000671 C10.1006012,7.95561387 10.1449745,8.0080673 10.2300945,7.99894728 C10.3790012,7.97198723 10.4962812,7.95833388 10.4999878,7.70321342 C10.4999878,7.70321342 10.4847878,7.26854598 10.1465212,7.29574603 C10.0665212,7.30595938 9.84198782,7.32499941 9.84198782,7.32499941 C9.58214782,7.2988927 9.39153449,7.29622603 9.09945449,7.28715934 C9.12641449,7.25827929 9.17401449,7.14129242 9.11572116,7.09889234 C9.10052116,7.08822566 9.07788116,7.08227898 9.04646782,7.08427898 L9.04548116,7.08427898 C9.04502782,7.08427898 9.04385449,7.08433232 9.04342782,7.08427898 C9.04321449,7.08422565 9.04262782,7.08347898 9.04244116,7.08342565 C9.04164116,7.08318565 9.04017449,7.08297231 9.03940116,7.08257231 C9.0375287,7.08131416 9.03582922,7.07988301 9.03433449,7.07830564 C9.03396116,7.07790564 9.03262782,7.0769723 9.03228116,7.0765723 C9.01750782,7.05843894 9.00945449,7.01390552 8.99966782,7.00265217 L8.99868116,7.00179884 C8.99854782,7.00171884 8.99777449,7.00099883 8.99766782,7.0009455 C8.99701532,7.0006236 8.99633828,7.00033853 8.99564116,7.00009217 L8.99361449,7.00009217 L8.99358782,6.9999855 Z M9.13212116,7.62155994 C9.13246782,7.62142661 9.13278782,7.62169327 9.13313449,7.62155994 C9.43076116,7.63382663 9.71041449,7.62390661 10.0080678,7.6361733 C10.0552678,7.66998669 10.0316678,7.7475335 10.0009478,7.76166686 C9.99930173,7.7623629 9.99760865,7.76294211 9.99588116,7.76340019 C9.99478782,7.76364019 9.99316116,7.76337353 9.99180116,7.76340019 C9.99044116,7.76340019 9.98908116,7.76364019 9.98772116,7.76340019 L9.73817449,7.75740018 C9.73812738,7.75332485 9.737446,7.74927239 9.73614782,7.74534683 C9.71321449,7.68796006 9.54708116,7.69182673 9.50798782,7.73676015 C9.50726782,7.73761348 9.50665449,7.73844015 9.50596116,7.73932015 C9.50515636,7.74040006 9.50446809,7.74156208 9.50390782,7.74278682 C9.50315903,7.7441835 9.50248283,7.74560708 9.50188116,7.7470535 C9.50126782,7.74876017 9.50110782,7.75129351 9.50086782,7.75308018 C9.50060116,7.75537351 9.49964116,7.75777352 9.49985449,7.75996019 C9.36948116,7.77321355 9.25158782,7.75628018 9.12094782,7.75222684 C9.08292116,7.7119601 9.08708116,7.63907997 9.13217449,7.62155994 L9.13212116,7.62155994 Z" id="Shape"></path>
                    <path d="M10.0576145,2.89707883 C10.0987878,2.91729217 10.2070545,2.79467883 10.2032145,2.64067883 C10.2151345,2.56169217 10.1726012,2.26993217 10.0646278,2.2204655 C10.0519878,2.2164655 10.0386278,2.21481217 10.0254278,2.2164655 C9.96900116,2.22401217 9.91561449,2.27201217 9.94009449,2.3506255 C9.92462782,2.39673217 10.0166812,2.55827883 10.0405478,2.64403883 C10.0620145,2.70507883 10.0128678,2.87763883 10.0575612,2.89577217 L10.0576145,2.89707883 Z M1.53401449,0.419852166 C1.66620116,0.477878833 1.91409449,0.453505499 1.90361449,0.256972166 C1.90361449,0.239958833 1.89945449,0.181185499 1.89756116,0.165318833 C1.88412116,0.136412166 1.85913449,0.125452166 1.83529449,0.129212166 L1.83556116,0.129265499 C1.81145449,0.133265499 1.78868116,0.151558833 1.78030782,0.181052166 C1.77500116,0.200705499 1.78937449,0.233212166 1.77028116,0.243025499 C1.75932116,0.254385499 1.71732116,0.247025499 1.71905449,0.192198833 C1.71905449,0.175212166 1.70524116,0.156838833 1.69694782,0.145905499 C1.68865449,0.140252166 1.68297449,0.138358833 1.66782782,0.138358833 C1.64950782,0.138838833 1.64988116,0.143985499 1.63972116,0.157798833 C1.63518782,0.171052166 1.62950782,0.186545499 1.62950782,0.203132166 C1.62726782,0.222385499 1.61892116,0.229052166 1.60337449,0.231852166 C1.58620116,0.231852166 1.58998782,0.233345499 1.57628116,0.224305499 C1.56833449,0.214838833 1.55833449,0.212945499 1.55833449,0.198385499 C1.55833449,0.185158833 1.55417449,0.159852166 1.54926782,0.150198833 C1.54188116,0.140758833 1.53054782,0.136945499 1.51713449,0.133185499 C1.44494782,0.133452166 1.43966782,0.209718833 1.44380116,0.238652166 C1.43854782,0.244305499 1.43569449,0.379238833 1.53422782,0.417238833 L1.53401449,0.419852166 Z M0.474494489,0.412305499 C0.494761156,0.458812166 0.454414489,0.608572166 0.496601156,0.622412166 C0.535374489,0.637505499 0.588787822,0.518652166 0.609081156,0.408598833 C0.620254489,0.348305499 0.611747822,0.142012166 0.459481156,0.0994254993 C0.451534489,0.097932166 0.443587822,0.0954254993 0.435347822,0.0954254993 C0.377107822,0.093932166 0.312841156,0.127158833 0.337907822,0.191612166 C0.323347822,0.226758833 0.451907822,0.345452166 0.474494489,0.411025499 L0.474494489,0.412305499 Z M5.14262782,0.467692166 C5.21852116,0.278625499 5.21889449,0.198038833 5.22396116,0.117825499 C5.21225449,0.056812166 5.18334782,0.0273188326 5.15068116,0.029772166 C5.11798782,0.033772166 5.08180116,0.067372166 5.05228116,0.135238833 C5.02692116,0.187025499 4.99601449,0.456412166 5.00102782,0.456412166 C4.98081449,0.536732166 5.09201449,0.570545499 5.14262782,0.467772166 L5.14262782,0.467692166 Z M4.19948116,0.414972166 C4.23700116,0.464465499 4.27396116,0.459372166 4.34913449,0.424412166 C4.39230782,0.395105499 4.40689449,0.376198833 4.42142782,0.327078833 C4.43937449,0.244678833 4.32729449,0.366012166 4.31294782,0.274172166 C4.28790782,0.188945499 4.35945449,0.153985499 4.42742782,0.071452166 C4.42897449,0.0327054993 4.42969449,0.000972165963 4.40236116,1.21659629e-05 C4.38988116,-0.000307834037 4.37126782,0.0056654993 4.34510782,0.0202254993 C4.28636116,0.056332166 4.16990782,0.168385499 4.16633449,0.296972166 C4.16273449,0.369532166 4.14798782,0.369158833 4.19945449,0.415478833 L4.19948116,0.414972166 Z M0.345081156,1.7167055 C0.730921156,1.75089217 0.517774489,1.11561217 0.657454489,1.00027883 C0.683854489,0.943398833 0.732787822,0.942252166 0.736787822,1.01353217 L0.736787822,1.55315883 C0.733187822,1.72851883 0.858521156,1.78073217 0.955721156,1.81697217 C1.05689449,1.8094255 1.12398782,1.81131883 1.16364116,1.90297217 L1.21185449,2.83689217 C1.21185449,2.83689217 1.44572116,2.89867883 1.45692116,2.3120655 C1.46804116,1.96753217 1.38244116,1.67841217 1.43281449,1.61139883 C1.43454782,1.54563883 1.52620116,1.5422255 1.58948116,1.57433217 C1.69033449,1.63993217 1.73508116,1.72059883 1.89177449,1.68811883 C2.13025449,1.62763883 2.27390782,1.5208655 2.27742782,1.35211883 C2.26364116,1.1916655 2.24337449,1.0311855 2.16798782,0.870785499 C2.17838782,0.841692166 2.12233449,0.765905499 2.13281449,0.736598833 C2.17566782,0.798598833 2.24046782,0.793292166 2.25534782,0.736598833 C2.21476116,0.613398833 2.15156116,0.495212166 2.04948116,0.444118833 C1.96510782,0.375532166 1.84158782,0.389878833 1.79638782,0.532945499 C1.77540116,0.697558833 1.86113449,0.892732166 1.99121449,1.05219883 C2.01884116,1.11435883 2.05750782,1.21811883 2.04041449,1.31139883 C1.97116116,1.3478255 1.90254782,1.33251883 1.84454782,1.2762255 C1.84454782,1.2762255 1.65476116,1.14529217 1.65476116,1.11617217 C1.70508116,0.818918833 1.66550782,0.784918833 1.63774782,0.702385499 C1.61825449,0.588625499 1.55969449,0.552518833 1.51222782,0.474705499 C1.46473449,0.428412166 1.40033449,0.428412166 1.36961449,0.474705499 C1.28572116,0.608678833 1.32508116,0.896758833 1.38569449,1.02545217 C1.42948116,1.14393217 1.49662782,1.2179855 1.46502782,1.2179855 C1.43897449,1.2848655 1.38470782,1.26937217 1.34550782,1.1920655 C1.28958782,1.03219883 1.27820116,0.794065499 1.27820116,0.686678833 C1.26158782,0.553638833 1.24273449,0.269212166 1.14764116,0.197052166 C1.12230782,0.165105499 1.09233449,0.154145499 1.06329449,0.157185499 C1.02596116,0.161185499 0.990787822,0.189158833 0.973907822,0.226545499 C0.967694489,0.358652166 0.966921156,0.490785499 0.982974489,0.612545499 C1.04820116,0.826092166 1.06884116,1.01395883 1.10049449,1.23265217 C1.10918782,1.52563883 0.916921156,1.3592655 0.925721156,1.21377217 C0.970147822,1.02515883 0.957854489,0.728118833 0.918734489,0.652838833 C0.887454489,0.577638833 0.851267822,0.558918833 0.775107822,0.571398833 C0.714654489,0.567398833 0.558627822,0.724838833 0.515001156,0.984225499 C0.515001156,0.984225499 0.478654489,1.11745217 0.462761156,1.23601217 C0.441427822,1.3699855 0.345054489,1.46491883 0.277961156,1.21707883 C0.219961156,1.03737217 0.184281156,0.594172166 0.0871344891,0.697878833 C0.0592944891,1.0438255 0.0262811558,1.6526255 0.345241156,1.7151055 L0.345081156,1.7167055 Z M2.83086782,1.12963883 C2.83102782,1.12971883 2.83166782,1.1295855 2.83188116,1.12963883 C2.83206782,1.12971883 2.83268116,1.1306255 2.83286782,1.1306255 C2.83305449,1.1307055 2.83361449,1.1306255 2.83388116,1.1306255 L2.83486782,1.13163883 C2.86001449,1.14673217 3.16926782,1.14673217 3.20348116,1.1326255 C3.20374782,1.1324655 3.20428116,1.13163883 3.20446782,1.13163883 C3.20465449,1.13147883 3.20537449,1.13169217 3.20548116,1.13163883 C3.20556116,1.1315855 3.20542782,1.1306255 3.20548116,1.1306255 C3.31172116,1.09451883 3.81609449,0.563238833 3.81609449,0.563238833 C3.78996116,0.542625499 3.76588116,0.527318833 3.73977449,0.506705499 C3.71177449,0.484225499 3.71460116,0.462518833 3.73977449,0.440038833 C3.86468116,0.373105499 3.82510782,0.225612166 3.75985449,0.158598833 C3.70577449,0.136305499 3.65486782,0.128758833 3.60921449,0.130812166 C3.56728631,0.132091376 3.52614607,0.142531165 3.48868116,0.161398833 C3.40108116,0.238705499 3.38052116,0.362678833 3.44953449,0.440012166 C3.51668116,0.469132166 3.58342782,0.531478833 3.53889449,0.565878833 C3.34876116,0.752785499 2.85476116,1.06515883 2.82985449,1.1221455 C2.82961809,1.12270654 2.82928402,1.12322118 2.82886782,1.1236655 C2.82876116,1.12409217 2.82886782,1.12515883 2.82886782,1.1256655 L2.82886782,1.12665217 C2.82913449,1.1271855 2.82945449,1.1276655 2.82985449,1.12865217 L2.83086782,1.1296655 L2.83086782,1.12963883 Z M3.57921449,0.296838833 C3.58132116,0.296412166 3.58316116,0.295852166 3.58526782,0.295852166 C3.61612116,0.291852166 3.65334782,0.319105499 3.67166782,0.355932166 C3.69113449,0.395238833 3.68126782,0.432865499 3.64953449,0.440225499 C3.61777449,0.447772166 3.57665449,0.421318833 3.55716116,0.382012166 C3.53769449,0.342732166 3.54753449,0.303958833 3.57926782,0.296785499 L3.57921449,0.296838833 Z M4.27681449,1.44145217 C4.43108116,1.5002255 4.52900116,1.22963883 4.59217449,0.933318833 C4.63537449,0.849985499 4.66838782,0.840732166 4.69057449,0.883238833 C4.68492116,1.27737217 4.72124116,1.36529217 4.83118782,1.48489217 C5.07644116,1.65929217 5.27932116,1.50697217 5.29521449,1.49243883 L5.48604116,1.31649217 C5.52854782,1.27529217 5.58470782,1.27283883 5.64470782,1.3089455 C5.70305449,1.35769217 5.69558782,1.44217217 5.82049449,1.50057217 C5.92561449,1.53931883 6.15009449,1.51001217 6.20214782,1.42649217 C6.27220116,1.3157455 6.28918782,1.27777217 6.32166782,1.23579883 C6.37164116,1.1743855 6.45726782,1.20179883 6.45726782,1.22259883 C6.44932116,1.2567855 6.39900116,1.29043883 6.43316116,1.3522255 C6.49262782,1.39323883 6.50644116,1.36547883 6.54164116,1.35787883 C6.66606782,1.30307883 6.75956116,1.05427883 6.75956116,1.05427883 C6.76502782,0.961478833 6.70777449,0.968678833 6.67118782,0.987558833 C6.62342782,1.0145455 6.62052116,1.0236655 6.57276116,1.05049217 C6.51190782,1.05993217 6.39406782,1.0958255 6.33574782,1.01249217 C6.27617449,0.912518833 6.27580116,0.773078833 6.23028116,0.671878833 C6.23028116,0.664332166 6.15068116,0.513132166 6.22422782,0.503505499 C6.26134782,0.511052166 6.34118782,0.528812166 6.35377449,0.467398833 C6.39270782,0.407505499 6.26977449,0.237532166 6.18604116,0.151772166 C6.11337449,0.078252166 6.01302782,0.069372166 5.91590782,0.144225499 C5.84788116,0.201852166 5.85793449,0.266492166 5.84457449,0.327532166 C5.82737449,0.397665499 5.83060116,0.484572166 5.90785449,0.577452166 C5.97577449,0.700652166 6.09918782,0.859265499 6.05852116,1.0827855 C6.05852116,1.0827855 5.98678782,1.1890255 5.86065449,1.17539883 C5.80812116,1.1640655 5.72244116,1.14385217 5.67686782,0.833878833 C5.64241449,0.599238833 5.68540116,0.270465499 5.57740116,0.116545499 C5.55332116,0.0585454993 5.53206782,0.00203883263 5.49708116,0.0063854993 C5.47609449,0.00787883263 5.45036116,0.033372166 5.41473449,0.0935054993 C5.38918782,0.155852166 5.27894782,0.250358833 5.35846782,0.445238833 C5.42356116,0.568652166 5.45028116,0.769558833 5.42076116,0.993185499 C5.37566782,1.05665217 5.36537449,1.0787855 5.30628116,1.14209217 C5.22326782,1.22449217 5.13326782,1.20331883 5.06425449,1.17267883 C4.99972116,1.13265217 4.94908116,1.11203883 4.91961449,0.984838833 C4.92492116,0.781958833 4.93756116,0.449958833 4.89753449,0.379505499 C4.83820116,0.270438833 4.74046782,0.309558833 4.69868116,0.342438833 C4.49788116,0.511558833 4.39870782,0.797292166 4.33809449,1.02457217 C4.28238782,1.18993217 4.22308116,1.1423055 4.18142782,1.0754255 C4.07998782,0.987718833 4.07286782,0.302865499 3.95041449,0.415478833 C3.75428116,0.932038833 4.06294782,1.4979055 4.27681449,1.44289217 L4.27681449,1.44145217 Z M3.46870782,1.0733455 C3.35182782,1.13155883 3.30657449,1.3045455 3.37937449,1.40563883 C3.44737449,1.4944655 3.55484116,1.46217217 3.56916116,1.46217217 C3.68369449,1.47539883 3.75196116,1.26409217 3.75196116,1.26409217 C3.75196116,1.26409217 3.75534782,1.2045455 3.61937449,1.31681217 C3.56214782,1.3281455 3.55436116,1.3073455 3.54004116,1.2780655 C3.52812116,1.22307883 3.53076116,1.16731883 3.55798782,1.11251883 C3.57065449,1.07961217 3.55804116,1.05865217 3.53089449,1.0559855 C3.51481449,1.05451883 3.49321449,1.0599855 3.46862782,1.07299883 L3.46870782,1.0733455 Z M11.0240412,3.71075883 C10.9989745,3.6843055 10.9424678,3.69939883 10.9044945,3.6975055 C10.8865478,3.6975055 10.8268412,3.6880655 10.8553212,3.64099883 C10.8788678,3.6109455 10.8875612,3.59299883 10.9035345,3.55577217 C10.9212945,3.5195055 10.9056145,3.4951055 10.8412412,3.4752655 C10.8084678,3.46961217 10.7857745,3.46771883 10.7619078,3.46771883 C10.7380412,3.46873217 10.7129478,3.47171883 10.6765745,3.4752655 C10.6371878,3.48281217 10.6234545,3.4988655 10.6163078,3.54273217 C10.6191345,3.60945217 10.6634012,3.60603883 10.7086812,3.63249217 C10.7349478,3.66329217 10.7520145,3.69107883 10.7066012,3.74155883 L10.5900945,3.8341455 C10.5698278,3.86587883 10.5571612,3.9150255 10.6192145,3.93033217 C10.7337745,3.9599855 10.9988412,3.8012655 10.9988412,3.79785217 C11.0417745,3.76819883 11.0275345,3.71187883 11.0239612,3.71187883 L11.0240412,3.71075883 Z M11.8466545,0.922385499 C11.8379612,0.863425499 11.8096945,0.728065499 11.8205212,0.710385499 C11.8379078,0.668972166 11.9265745,0.714385499 11.9581212,0.666918833 C12.0043612,0.623292166 11.7291078,0.298598833 11.6327078,0.159718833 C11.6134278,0.124945499 11.6015612,0.0961988326 11.5844945,0.0977188326 C11.5712678,0.0987054993 11.5550278,0.118705499 11.5302545,0.167052166 C11.4706545,0.257185499 11.4499078,0.418172166 11.4740145,0.560465499 C11.6175345,1.45505217 11.7241478,2.32131883 11.7462012,3.1142255 C11.7339345,3.1894255 11.7303345,3.22947883 11.6919612,3.3243055 C11.6072678,3.42425217 11.5138812,3.5498255 11.4258278,3.6103055 C11.3378278,3.6707855 11.1506012,3.72843883 11.0893745,3.77321217 C10.8951345,3.87675883 10.8938545,3.9956655 11.0511878,3.9999855 C11.3218545,3.97107883 11.6420945,3.95065217 11.8626812,3.64363883 C11.9217212,3.5576655 11.9912145,3.32443883 11.9942812,3.18177217 C12.0149212,2.3451055 11.9827345,1.52705217 11.8466012,0.922385499 L11.8466545,0.922385499 Z M0.130707822,2.56291883 L1.13502782,2.11865217 C1.08012116,2.04307883 1.13164116,1.97505217 0.925161156,1.9695855 C0.607774489,1.97521217 0.142974489,2.35297217 0.130707822,2.5628655 L0.130707822,2.56291883 Z M0.309614489,3.52169217 C0.226121156,3.67795883 0.191374489,3.57099883 0.184094489,3.48369217 C0.171427822,3.3181455 0.188627822,3.16569217 0.208201156,3.04497217 C0.218601156,2.98299883 0.218227822,2.96145217 0.210307822,2.96163763 C0.202361156,2.9619055 0.186307822,2.98393217 0.165107822,3.00849217 C-0.0236921776,3.2857455 -0.0404921776,3.69953217 0.0636678224,3.8230255 C0.119054489,3.8814255 0.210307822,3.90691883 0.277587822,3.8887855 C0.396227822,3.84131883 0.448334489,3.61993217 0.420174489,3.53891883 C0.380601156,3.4816655 0.349214489,3.4727855 0.309694489,3.52193217 L0.309614489,3.52169217 Z M2.67713449,3.10505217 C2.81465449,2.68307883 2.67428116,2.36475883 2.72033449,2.32571883 C2.72073449,2.32539883 2.72193449,2.32521217 2.72246782,2.3247055 C2.72284116,2.32443883 2.72398782,2.3242255 2.72454782,2.32371883 C2.72500116,2.3235055 2.72604116,2.3227055 2.72665449,2.3227055 C2.72861284,2.32211989 2.7306383,2.32178829 2.73268116,2.32171883 C2.90238782,2.49009217 3.14046782,2.34305217 3.19265449,2.28465217 C3.21505449,2.2555855 3.27102782,2.23665217 3.31014782,2.27331883 C3.44252116,2.36099883 3.67449449,2.31961217 3.72294782,2.16505217 C3.75094782,2.01385217 3.77457449,1.85817217 3.78017449,1.6967055 C3.69393449,1.72145217 3.62441449,1.73995883 3.59638782,1.76699883 C3.58977449,1.7745455 3.58486782,1.78025217 3.58332116,1.78931883 L3.56124116,1.92347883 C3.56054782,1.92747883 3.55916116,1.9310255 3.55729449,1.93483883 C3.55334782,1.94049217 3.54766782,1.94617217 3.54124116,1.94809217 C3.51076116,1.9631855 3.45758782,1.95563883 3.45484116,1.91387883 C3.41390782,1.74209217 3.24508116,1.7196655 3.14252116,1.9860655 C3.07353449,2.0376655 2.94769449,2.0476655 2.93460116,1.97097217 C2.95124116,1.79219883 2.87300116,1.76827883 2.71668116,1.85249217 L2.56604116,0.806598833 C2.63132116,0.805105499 2.69116116,0.848358833 2.75084116,0.779558833 C2.68657449,0.594358833 2.54964116,0.217878833 2.47265449,0.182518833 C2.47206782,0.182278833 2.47126782,0.182038833 2.47054782,0.181532166 C2.46710342,0.177557931 2.46345402,0.173766111 2.45961449,0.170172166 C2.45801449,0.169185499 2.45641449,0.168172166 2.45470782,0.166172166 C2.45329449,0.165185499 2.45110782,0.164678833 2.44980116,0.162172166 C2.44660116,0.160678833 2.44318782,0.158172166 2.43977449,0.158172166 C2.43297449,0.156678833 2.42580116,0.156678833 2.41868116,0.156678833 L2.41873449,0.156678833 C2.39958782,0.158172166 2.37841449,0.168038833 2.35345449,0.173692166 C2.27145449,0.197878833 2.19465449,0.263078833 2.21886782,0.390278833 L2.47598782,1.89067883 C2.49092116,1.9541455 2.43305449,2.0380655 2.35849449,2.02955883 C2.23172116,1.95057217 2.20046782,1.79017217 1.98390782,1.7972655 C1.82726782,1.79875883 1.64865449,1.9559855 1.62636116,2.10731883 C1.60022782,2.2275055 1.59094782,2.3579055 1.62636116,2.46275883 C1.73614782,2.5846255 1.86828116,2.57179883 1.98390782,2.54419883 C2.07897449,2.50809217 2.15716116,2.4217455 2.19078782,2.44233217 C2.19089449,2.44243883 2.19169449,2.44225217 2.19180116,2.44233217 C2.19188116,2.44249217 2.19169449,2.4433455 2.19180116,2.4433455 C2.21252116,2.4767855 2.18988116,2.75915883 1.74382782,2.97739883 C1.46974782,3.0907855 1.25156116,3.11779883 1.13420116,2.91163883 C1.06148116,2.78275883 1.13948116,2.29211883 0.960467822,2.40531883 C0.430974489,3.66315883 2.20094782,3.83875883 2.39865449,2.45707883 C2.41150782,2.41817217 2.45046782,2.3790255 2.47801449,2.38867883 C2.48990782,2.39433217 2.50113449,2.40851883 2.50513449,2.43667883 C2.46409449,3.68763883 1.13585449,3.77337217 0.910281156,3.37987883 C0.854361156,3.28707883 0.837507822,3.0806255 0.831934489,2.95689217 C0.821747822,2.8820655 0.801321156,2.83875883 0.777694489,2.82177217 C0.724147822,2.7847055 0.651827822,2.88187883 0.636094489,3.0503855 C0.613694489,3.18609217 0.620041156,3.2231055 0.620041156,3.35401217 C0.690867822,4.34203883 2.40014782,3.9175055 2.67790782,3.10131883 L2.67713449,3.10505217 Z M2.01686782,2.25011883 C2.01673449,2.25027883 2.01694782,2.2511055 2.01686782,2.2511055 C2.01660116,2.25155883 2.01614782,2.25259883 2.01585449,2.25259883 C2.00262782,2.26771883 1.95574782,2.2620655 1.92246782,2.2620655 C1.88214782,2.2605455 1.86230782,2.25451883 1.83809449,2.2240655 C1.82657449,2.19041217 1.86174782,2.1573455 1.87729449,2.13241217 C1.87745449,2.1321455 1.87814782,2.13187883 1.87830782,2.13139883 C1.88038782,2.1299055 1.88265449,2.1257455 1.88529449,2.12385217 C1.89737449,2.11249217 1.91817449,2.10419883 1.94052116,2.10155883 C1.94486782,2.10105217 1.94905449,2.1005455 1.95358782,2.1005455 C1.98468116,2.1008655 2.01750782,2.11379883 2.03489449,2.15515883 C2.04772116,2.18731883 2.04092116,2.22339883 2.01692116,2.2496655 L2.01686782,2.25011883 Z M9.34492116,3.8687855 L9.04761449,3.9687855 L9.34492116,3.8687855 Z M7.66865449,1.3066255 C7.80084116,1.3646255 8.04977449,1.33913217 8.03924116,1.1427855 C8.03924116,1.12577217 8.03414782,1.06699883 8.03225449,1.05113217 C8.01884116,1.02203883 7.99385449,1.0112655 7.96998782,1.0150255 C7.94614782,1.0190255 7.92313449,1.03787883 7.91476116,1.06793217 C7.90945449,1.0875855 7.92494782,1.11913217 7.90569449,1.12899883 C7.89470782,1.14033217 7.85172116,1.13299883 7.85342782,1.07889217 C7.85342782,1.0619055 7.83982782,1.0426255 7.83134782,1.03163883 C7.82302782,1.02601217 7.81737449,1.02409217 7.80222782,1.02409217 C7.78390782,1.0246255 7.78428116,1.0297455 7.77412116,1.04355883 C7.76977449,1.05681217 7.76409449,1.07243883 7.76409449,1.08889217 C7.76185449,1.1081455 7.75446782,1.11481217 7.73902782,1.11763883 C7.72180116,1.11763883 7.72484116,1.11915883 7.71089449,1.11009217 C7.70294782,1.10065217 7.69292116,1.09875883 7.69292116,1.0842255 C7.69292116,1.0709455 7.68878782,1.0458255 7.68385449,1.03601217 C7.67668116,1.0265455 7.66516116,1.02465217 7.65174782,1.02089217 C7.57953449,1.02115883 7.57526782,1.09667883 7.57942782,1.1254255 C7.57414782,1.1310255 7.57036116,1.26731883 7.66878782,1.30491883 L7.66865449,1.3066255 Z M9.79998782,1.81297217 C9.80222782,1.69827883 9.81433449,1.54587883 9.82105449,1.4510255 C9.82390782,1.41513217 9.83294782,1.3758255 9.87022782,1.36675883 C9.90742782,1.35729217 9.97193449,1.40115883 9.97268116,1.36275883 C9.96588116,1.28979883 9.95009449,1.18227883 9.90537449,1.13137217 C9.88249449,1.10001217 9.84492116,1.08315883 9.80596116,1.08129217 C9.74105449,1.07729217 9.67196116,1.1171855 9.65428116,1.19883883 C9.65454782,1.2470255 9.67790782,1.2735055 9.67334782,1.31713217 C9.66654782,1.34209217 9.63860116,1.3585455 9.57190782,1.32849217 C9.58249449,1.3190255 9.52870782,1.24969217 9.52870782,1.24969217 C9.47668116,1.22059883 9.40721449,1.2511855 9.36198782,1.2783855 C9.33710782,1.3199855 9.31873449,1.3915855 9.34705449,1.46433217 C9.42172116,1.59153217 9.67788116,1.80841217 9.80004116,1.81051883 L9.79998782,1.81297217 Z M8.97630782,3.39547883 C9.06841449,3.39601217 9.17486782,3.2013455 9.22036116,3.0086255 C9.24526782,2.74313217 9.20372116,2.58155883 9.19625449,2.4255055 C9.18868116,2.2694255 9.00457449,1.00337217 8.96726782,0.885292166 C8.92228116,0.662065499 9.14638782,0.855772166 9.12193449,0.726172166 C9.04446782,0.562492166 8.85105449,0.323852166 8.79052116,0.181905499 C8.76777449,0.143772166 8.76494782,0.108598833 8.74633449,0.111638833 C8.73518782,0.113638833 8.71865449,0.128625499 8.68806782,0.166252166 C8.61244116,0.394038833 8.58588116,0.580118833 8.61473449,0.721585499 C8.80892116,1.6555855 9.00790782,2.50649217 8.97630782,3.39561217 L8.97630782,3.39547883 Z M8.28537449,3.2048655 C8.07281449,3.40939883 7.76633449,3.6615055 7.43270782,3.7778255 C7.39681449,3.81489217 7.52193449,3.9732655 7.68380116,3.97310562 C7.95446782,3.9442255 8.19233449,3.80417217 8.41294782,3.43537217 C8.47196116,3.34937217 8.57561449,3.16523883 8.57868116,3.02251883 C8.59932116,2.18587883 8.53316116,1.53537217 8.39692116,0.930678833 C8.38822782,0.871718833 8.39406782,0.802358833 8.40484116,0.784412166 C8.42222782,0.765105499 8.48180116,0.784865499 8.51332116,0.737158833 C8.55956116,0.693692166 8.38980116,0.332705499 8.29337449,0.193798833 C8.27409449,0.158998833 8.26222782,0.131265499 8.24516116,0.132758833 C8.23193449,0.133772166 8.21569449,0.152812166 8.19089449,0.201372166 C8.13126782,0.291505499 8.09078782,0.448065499 8.09545449,0.594758833 C8.22454782,1.41859883 8.26417449,2.13953217 8.34854782,2.96337217 C8.35537449,3.0431055 8.34268116,3.1587855 8.28529449,3.20497217 L8.28537449,3.2048655 Z M7.75790782,0.544652166 C7.80508116,0.666358833 7.72190782,0.782412166 7.77097449,0.799212166 C7.81612116,0.818092166 7.87897449,0.673345499 7.90254782,0.540012166 C7.92977449,0.432118833 7.84620116,0.210838833 7.72777449,0.165185499 C7.71870782,0.163185499 7.70908116,0.163185499 7.69966782,0.161185499 C7.63193449,0.159185499 7.55700116,0.198785499 7.58617449,0.276838833 C7.56916116,0.319532166 7.73169449,0.464492166 7.75790782,0.543398833 L7.75790782,0.544652166 Z M10.1447345,1.8080655 C10.141061,1.80753998 10.1373155,1.80788714 10.1338012,1.80907883 L9.50609449,2.22465217 C9.44534782,2.2745455 9.47574782,2.4494255 9.50609449,2.42923883 C9.55001449,2.44433217 10.1666812,2.05963883 10.1548945,2.0145455 C10.1817745,2.01603883 10.1947078,1.81641217 10.1448945,1.8081455 L10.1447345,1.8080655 Z M9.71353449,0.684278833 C9.89976864,0.89548795 10.0819267,1.11025649 10.2599078,1.3284655 C10.2986545,1.7880655 10.3089745,2.20931883 10.3482812,2.66963883 C10.3428145,2.8665455 10.2770012,3.12801217 10.2147345,3.15283883 C10.2147345,3.15283883 10.1196145,3.20307883 10.0560678,3.1471855 C10.0098545,3.13017217 9.82505449,2.86299883 9.82505449,2.86299883 C9.73046782,2.78305217 9.66740116,2.80593217 9.60009449,2.86299883 C9.41449449,3.02817217 9.33052116,3.33761217 9.20441449,3.55073217 C9.17190782,3.59833217 9.08028116,3.63859883 8.97846782,3.54673217 C8.76892116,3.28265217 8.82836116,2.9286255 8.84140116,2.86691883 L8.83876116,2.87827883 C8.60836116,3.11755883 8.71041449,3.51403883 8.76244116,3.5993455 C8.83838782,3.7393455 8.89982782,3.8290255 9.04766782,3.89827883 C9.18233449,3.98955883 9.28710782,3.93267883 9.34494782,3.8687855 C9.48041449,3.73931883 9.48222782,3.40851883 9.54580116,3.34305217 C9.59041449,3.22267883 9.70220116,3.24345217 9.75673449,3.29675883 C9.80953449,3.36667883 9.87193449,3.41241217 9.94953449,3.4503855 C10.0759345,3.55299883 10.2267345,3.57171883 10.3754012,3.47819883 C10.4769478,3.4256655 10.5428678,3.35723883 10.6023612,3.2227055 C10.6662012,3.06547883 10.6346278,2.2411055 10.6203078,1.78249217 L10.9035345,2.16105217 C10.9446012,2.56337217 10.9632678,2.9600655 10.9497478,3.34025217 C10.9400945,3.4158255 11.2359612,3.1145455 11.2339878,2.97185217 L11.2339878,2.62843883 C11.3775345,2.83963883 11.5164412,3.05435883 11.6477478,3.2717455 C11.7291078,3.23225217 11.7012412,2.80737217 11.6498545,2.74881217 C11.5123345,2.53617217 11.3362545,2.30641217 11.1999078,2.12865217 C11.1729478,1.90401217 11.1362278,1.6395855 11.1195612,1.55843883 C11.0935878,1.43203883 11.0675078,1.24203883 11.0281478,1.09195883 C11.0173745,1.03337217 10.9847612,0.846172166 10.9950545,0.828198833 C11.0111078,0.786438833 11.0716412,0.829692166 11.1015078,0.780945499 C11.1461745,0.735932166 10.9467078,0.259718833 10.8453745,0.123745499 C10.8089745,0.0627054993 10.7431345,0.0839054993 10.6615878,0.183078833 C10.5859612,0.248278833 10.6133745,0.397052166 10.6425212,0.538518833 C10.7175078,0.899078833 10.7843878,1.26633217 10.8373478,1.63259883 L10.5018812,1.17905217 L10.4869478,1.10761217 C10.4869478,1.1000655 10.4708945,0.812678833 10.4568145,0.743878833 C10.4541745,0.715958833 10.4472145,0.707985499 10.4789478,0.711612166 C10.5126012,0.737638833 10.5171612,0.738998833 10.5382012,0.747692166 C10.5722278,0.753345499 10.6019078,0.700438833 10.5814012,0.651505499 L10.2660412,0.114652166 C10.2534012,0.103318833 10.2392145,0.091052166 10.2228412,0.0887854993 C10.2066012,0.0867588326 10.1886545,0.0943854993 10.1686012,0.121052166 C10.1302545,0.152065499 10.0890278,0.208172166 10.0902545,0.280172166 C10.0995345,0.407158833 10.1241212,0.537238833 10.1334545,0.664305499 L10.1434812,0.715158833 C10.1324437,0.701873193 10.1207024,0.689188352 10.1083078,0.677158833 C9.83964116,0.416998833 10.2315078,0.634652166 10.0570812,0.433692166 C9.90937449,0.284225499 9.86614782,0.236652166 9.73972116,0.146758833 C9.67633449,0.108972166 9.63801449,0.0367854993 9.61718782,0.158118833 C9.60924116,0.266012166 9.60036116,0.391078833 9.60830782,0.482118833 C9.60785449,0.532545499 9.66468116,0.627798833 9.71374782,0.683878833 L9.71353449,0.684278833 Z M11.2714012,0.892945499 C11.2928678,0.954012166 11.2387078,1.15065217 11.2832945,1.1687855 C11.3244412,1.18897217 11.3823345,1.03289217 11.4038278,0.888305499 C11.4157212,0.809318833 11.3521212,0.531452166 11.2440945,0.481985499 C11.2356145,0.480492166 11.2269212,0.477985499 11.2180145,0.477985499 C11.1562545,0.476492166 11.0889212,0.519185499 11.1155612,0.603852166 C11.1000678,0.649958833 11.2473212,0.806892166 11.2712412,0.892625499 L11.2714012,0.892945499 Z M6.58878782,3.74035883 C6.58878782,3.74601217 6.64052116,3.78593217 6.70126782,3.75171883 C6.82948116,3.70657217 6.90937449,3.6627055 7.08892116,3.62681217 C7.13606782,3.62579883 7.13332116,3.50963883 7.05878782,3.5056655 C6.96156116,3.51131883 6.87177449,3.51513217 6.77452116,3.58523883 C6.71470782,3.59657217 6.70444116,3.56443883 6.69116116,3.5343855 C6.67604116,3.4597455 6.72537449,3.4070255 6.71526782,3.35107883 C6.71790782,3.35307883 6.68508116,3.32633217 6.64294782,3.32425217 C6.62764116,3.32371883 6.61238782,3.32625217 6.59878782,3.33369217 C6.59612116,3.33369217 6.46358782,3.41609217 6.42102782,3.4733455 C6.39502782,3.49225217 6.39798782,3.5073455 6.40609449,3.5391055 C6.42636116,3.58201217 6.46201449,3.56859883 6.50252116,3.5485455 C6.55625449,3.54099883 6.58225449,3.57425217 6.57782782,3.63377217 C6.55302782,3.70785217 6.58878782,3.73563883 6.58878782,3.74035883 Z M7.19497449,2.56083883 L7.19596116,2.5598255 C7.19606782,2.5597455 7.19686782,2.55883883 7.19697449,2.55883883 C7.19705449,2.55873217 7.19777449,2.55833217 7.19798652,2.5578255 L7.19798652,2.5558255 C7.19808534,2.55264784 7.19775307,2.5494688 7.19697449,2.5463855 L7.13870782,2.51483883 L5.99076116,2.5091855 C5.97657449,2.50353217 5.96601449,2.4978255 5.95964116,2.49593217 C5.95891315,2.49528375 5.95820181,2.49461687 5.95750782,2.49393217 L5.95652116,2.4929455 L5.95553449,2.49193217 L5.95452116,2.49043883 L5.95353449,2.4894255 L5.95353449,2.48843883 L5.95252116,2.4874255 L5.95252116,2.4834255 L5.95252116,2.47843883 L5.95353449,2.4774255 L5.95452116,2.47593217 C5.95982782,2.4683855 5.97369449,2.46267883 5.99068116,2.4564655 C6.26481449,2.4220655 6.75177449,2.34857217 6.78412116,1.91689217 C6.77884116,1.69227883 6.67974782,1.54483883 6.38041449,1.50401217 C6.16044116,1.5191055 6.00361449,1.71579883 6.02886782,1.93169217 C6.01846782,1.98969217 6.05022782,2.10403883 5.98566782,2.11667883 C5.56374782,2.15225217 5.10326782,2.3955855 5.08780116,2.5702255 L5.08678782,2.5702255 L5.08577449,2.57121217 L5.08366782,2.5722255 L5.08156116,2.5722255 C5.08057449,2.5725455 5.07948116,2.5727055 5.07857449,2.57321217 L5.07254782,2.57321217 C5.07121449,2.5729455 5.06988116,2.5727055 5.06860116,2.5722255 C5.04116116,2.56467883 5.00582782,2.52347883 5.01137449,2.46489217 C4.99532116,2.16345217 4.88884116,1.82233217 4.72212116,1.55963883 C4.66262782,1.50483883 4.63641449,1.48273217 4.61969449,1.48006846 C4.61913449,1.48003883 4.61822782,1.48006846 4.61756116,1.48006846 L4.61134782,1.48006846 C4.60923919,1.48070816 4.60746941,1.48215092 4.60644116,1.48409217 C4.60537449,1.48459883 4.60436116,1.48507883 4.60345449,1.4855855 C4.59060116,1.4950255 4.57529449,1.51507883 4.54118782,1.53737217 C4.48366782,1.59763883 4.47337449,1.63961217 4.47689449,1.76043883 C4.48009449,1.77177217 4.58606782,2.04427883 4.67574782,2.23523883 C4.73622782,2.43345217 4.79214782,2.66049217 4.75108116,2.87483883 C4.60948116,3.15825217 4.32484116,3.41243883 4.05009449,3.55051883 C3.91009449,3.59171883 3.78924116,3.57771883 3.75684116,3.5495055 L3.75588116,3.54851883 C3.67553449,3.49859883 3.67369449,3.4103855 3.67862782,3.3948655 L3.67862782,3.39387883 L3.67961449,3.3928655 C3.91148116,3.24395883 4.17628116,3.12385217 4.38361449,2.7218255 C4.44486782,2.56817217 4.46356116,2.47609217 4.40270782,2.23865217 C4.37900116,2.1502255 4.34966782,2.07745217 4.28420116,2.01465217 L4.28518782,2.0136655 C4.32465449,1.99665217 4.42705449,2.0658255 4.44286782,2.0231055 C4.41862782,1.90971883 4.33534782,1.7575855 4.24100116,1.67971883 C4.15841449,1.6105455 4.06852116,1.60259883 3.99292116,1.6664655 C3.90777449,1.71011883 3.88964116,1.86699883 3.93065449,2.0043055 C3.97617449,2.1076655 4.09918782,2.12563883 4.18676116,2.33379883 L4.18676116,2.33481217 C4.18857449,2.34617217 4.21681449,2.49033217 4.17278782,2.54769217 C4.13697449,2.65049217 3.67732116,2.98457217 3.64449449,3.00491883 C3.64412116,3.00529217 3.64182782,3.00641217 3.64142782,3.00691883 L3.64044116,3.00793217 C3.64009449,3.00819883 3.63977449,3.00841217 3.63942782,3.00891883 C3.63910782,3.00923883 3.63878782,3.0094255 3.63844116,3.00993217 L3.63630782,3.00993217 C3.63598782,3.00961217 3.63564116,3.00939883 3.63532116,3.00891883 L3.63532116,3.00793217 C3.63489503,3.00731804 3.63456252,3.00664402 3.63433449,3.00593217 C3.63292116,2.9964655 3.63540116,2.97641217 3.63433449,2.94203883 C3.63129449,2.8795055 3.65940116,2.73771883 3.65740116,2.71339883 L3.65740116,2.71241217 L3.65641449,2.71139883 L3.65641449,2.71041217 L3.65540116,2.71041217 C3.50340116,2.80073217 3.45321449,3.07819883 3.42542782,3.16027883 C3.04057449,3.40537217 2.60324116,3.58769217 2.35182782,3.83595883 C2.22073449,4.02457217 3.25502782,3.61931883 3.37524116,3.5703055 C3.37630782,3.57081217 3.37734782,3.5723055 3.37825449,3.5743055 C3.40108116,3.5973455 3.40305449,3.67825217 3.47164116,3.75099883 C3.57910782,3.88515883 3.80766782,3.96785217 4.03004116,3.9165455 C4.40297449,3.7923855 4.61780116,3.55809217 4.83654782,3.29825217 C4.86780116,3.2563055 4.91681449,3.22339883 4.96206782,3.2557455 C5.11236116,3.56587883 5.54572116,3.78651883 6.10598782,3.8092655 C6.23561449,3.66393217 6.17364116,3.59257217 6.12092116,3.56211883 C6.10486782,3.55075883 5.84228116,3.45779883 5.80156116,3.36403883 C5.77588116,3.27673217 5.83822782,3.19923883 5.96324116,3.14097217 C6.32297449,3.10091883 6.67657449,3.0563055 7.01881449,2.95499883 C7.02220116,2.84899883 7.09001449,2.69059883 7.13532116,2.62177217 C7.16678782,2.5739855 7.18700116,2.56923883 7.19457449,2.56243883 L7.19497449,2.56083883 Z M6.24817449,1.89651883 C6.24897449,1.89251883 6.25025449,1.8908655 6.25212116,1.88705217 C6.25276116,1.8860655 6.25337449,1.88555883 6.25422782,1.88305217 L6.25521449,1.8820655 C6.25670782,1.8800655 6.25841449,1.8780655 6.26012116,1.87641217 C6.26729449,1.87075883 6.27769449,1.86697217 6.28926782,1.86505217 C6.31425449,1.86305217 6.34705449,1.8707055 6.37860116,1.88737217 C6.42433449,1.91177217 6.45254782,1.94859883 6.44892116,1.9754255 C6.44878782,1.97593217 6.44908116,1.97691883 6.44892116,1.9794255 C6.44876116,1.97993217 6.44716116,1.98091883 6.44681449,1.9834255 L6.44582782,1.9874255 C6.44564116,1.98785217 6.44502782,1.98891883 6.44481449,1.98891883 C6.44449449,1.9894255 6.44417449,1.98993217 6.44382782,1.99091883 C6.44212116,1.99291883 6.44001449,1.99657217 6.43777449,1.9984655 C6.41582782,2.01739883 6.36508116,2.0135855 6.31724116,1.9890255 C6.27196116,1.96481217 6.24396116,1.92779883 6.24697449,1.90115883 C6.24708116,1.9006255 6.24782782,1.89963883 6.24796116,1.89715883 L6.24817449,1.89651883 Z M5.78924116,2.9561455 C5.66604116,2.99507883 5.54774782,3.02547883 5.54721449,3.18939883 C5.56329449,3.27065217 5.55988116,3.31315883 5.54622782,3.33281217 C5.54502782,3.33433217 5.54377449,3.33681217 5.54228116,3.3384655 L5.54126782,3.33947883 L5.54028116,3.3404655 C5.53996116,3.3407855 5.53961449,3.34099883 5.53926782,3.34147883 L5.53828116,3.3424655 C5.53756116,3.34275883 5.53686782,3.34299883 5.53614782,3.34347883 C5.53428116,3.34497217 5.53222782,3.34497217 5.53012116,3.34747883 C5.52841449,3.3479855 5.52598782,3.3479855 5.52409449,3.3484655 C5.49481449,3.3524655 5.45230782,3.32673217 5.42062782,3.3114255 C5.34468116,3.26115883 5.13156116,3.13945217 5.10124116,2.8782255 C5.09689449,2.81929217 5.14478782,2.76843883 5.22177449,2.76353217 C5.22556116,2.7632655 5.22873449,2.76353217 5.23270782,2.76353217 L5.23481449,2.76353217 C5.36268116,2.79547883 5.55121449,2.7988655 5.71492116,2.81435883 C5.84820116,2.8219055 5.91409449,2.9183055 5.78924116,2.95873217 L5.78924116,2.9561455 Z M3.09572116,2.5951855 C3.09268116,2.6422255 3.23662782,2.69947883 3.24534782,2.8080655 C3.26593449,2.8528655 3.21454782,2.9964655 3.25745449,3.0098255 C3.29676116,3.02491883 3.35132116,2.9106255 3.37193449,2.80435883 C3.38326782,2.7461455 3.32254782,2.54265217 3.21926782,2.50633217 C3.20321449,2.50233217 3.18657449,2.50067883 3.17009449,2.50233217 C3.12022782,2.50633217 3.07569449,2.53011883 3.09574782,2.59491883 L3.09572116,2.5951855 Z M5.40926782,1.9323055 C5.54145449,1.99033217 5.85652116,1.9563055 5.77985449,1.76865217 C5.77985449,1.75163883 5.77476116,1.6928655 5.77286782,1.67699883 C5.75942782,1.64809217 5.73446782,1.63713217 5.71060116,1.64089217 C5.68673449,1.64489217 5.66372116,1.6631855 5.65534782,1.69267883 C5.65006782,1.71233217 5.66556116,1.74483883 5.64646782,1.75483883 C5.63553449,1.76619883 5.59252116,1.75883883 5.59422782,1.70475883 C5.59422782,1.68777217 5.58044116,1.66849217 5.57214782,1.65753217 C5.56382782,1.65187883 5.55929449,1.64995883 5.54404116,1.64995883 C5.52569449,1.65049217 5.52532116,1.65561217 5.51492116,1.6694255 C5.51054782,1.68267883 5.50489449,1.69833217 5.50489449,1.71475883 C5.50265449,1.73401217 5.49526782,1.74067883 5.47980116,1.74347883 C5.46260116,1.74347883 5.46638782,1.74547883 5.45265449,1.73593217 C5.44473449,1.7264655 5.43358782,1.72457217 5.43358782,1.71001217 C5.43358782,1.69675883 5.43038782,1.6716655 5.42566782,1.66201217 C5.41846782,1.65257217 5.40574782,1.65067883 5.39252116,1.64691883 C5.32033449,1.6471855 5.31606782,1.7227055 5.32022782,1.7514255 C5.31492116,1.75707883 5.31116116,1.8933455 5.40956116,1.9309455 L5.40926782,1.9323055 Z M6.52860116,0.590705499 C6.75020116,0.865265499 6.96345449,1.14113217 7.16940116,1.4265455 C7.20150782,1.6384655 7.22548116,1.8457455 7.24070782,2.05225217 C7.27406782,2.50491883 7.28417449,3.0684655 7.25374782,3.54521217 C7.34577449,3.54921217 7.49321449,3.40819883 7.54500116,3.20275883 C7.57868116,2.91849217 7.53308116,2.33843883 7.53006782,2.1707055 C7.52796116,2.10115883 7.52326782,2.01801217 7.51796116,1.93097217 C7.76840205,2.30793063 8.00196583,2.69583335 8.21796116,3.09353217 C8.30116116,3.05723883 8.28270782,2.62561217 8.23404116,2.56499883 C8.05145449,2.2028655 7.79924116,1.84537217 7.71884116,1.70785217 C7.68977449,1.65851883 7.59094782,1.51963883 7.47377449,1.35985217 C7.45220116,1.13185217 7.42878782,0.938732166 7.41350782,0.880385499 C7.37582782,0.639345499 7.52097449,0.907398833 7.50089449,0.767372166 C7.45374782,0.526678833 7.30961449,0.363105499 7.13932116,0.142625499 C7.08444116,0.0709988326 7.08577449,0.056252166 7.00073449,0.159612166 C6.95006782,0.265638833 6.95076116,0.353692166 6.96556116,0.436385499 C6.93749609,0.398652831 6.90767665,0.362257285 6.87620116,0.327318833 L6.59801449,0.109852166 C6.55950782,0.0846788326 6.48625449,0.0455854993 6.43028116,0.0505188326 C6.39668116,0.0545188326 6.36996116,0.0715054993 6.35998782,0.117185499 C6.34654782,0.224732166 6.35356116,0.283132166 6.37302782,0.372652166 C6.38796116,0.432385499 6.48228116,0.532172166 6.52868116,0.590225499 L6.52860116,0.590705499 Z M6.99782782,0.575612166 C7.00310782,0.598865499 7.00916116,0.622118833 7.01294782,0.645905499 C7.02558782,0.697105499 7.03649449,0.747958833 7.04809449,0.798598833 C6.99937449,0.736625499 6.95902782,0.686732166 6.94166782,0.668972166 C6.83132116,0.548012166 6.94409449,0.589772166 6.99788116,0.575638833 L6.99782782,0.575612166 Z" id="Shape" fill-rule="nonzero"></path>
                </g>
            </g>
        </g>
    </g>
</svg>