<svg xmlns="http://www.w3.org/2000/svg" xmlns:xlink="http://www.w3.org/1999/xlink" width="23" height="17" viewBox="0 0 23 17">
    <defs>
        <rect id="a" width="23" height="16.43" rx="2"/>
    </defs>
    <g fill="none" fill-rule="evenodd">
        <mask id="b" fill="#fff">
            <use xlink:href="#a"/>
        </mask>
        <use fill="#FFF" xlink:href="#a"/>
        <rect width="22.5" height="15.93" x=".25" y=".25" stroke="#F5F5F5" stroke-width=".5" rx="2"/>
        <path fill="#E12237" d="M0 0h23v9.242H0z" mask="url(#b)"/>
        <path fill="#FFF" d="M7.483 1.701a3.047 3.047 0 0 0-.983-.16c-1.553 0-2.813 1.149-2.813 2.567 0 1.417 1.26 2.567 2.813 2.567.346 0 .677-.057.983-.161a3.566 3.566 0 0 1-2.108.674C3.511 7.188 2 5.808 2 4.108c0-1.702 1.511-3.081 3.375-3.081.797 0 1.53.252 2.108.674zM5.938 4.108c-.311 0-.563-.23-.563-.514 0-.284.252-.513.563-.513.31 0 .562.23.562.513 0 .284-.252.514-.563.514zM7.063 6.16c-.311 0-.563-.23-.563-.513 0-.284.252-.514.563-.514.31 0 .562.23.562.514 0 .283-.252.513-.563.513zm2.25 0c-.311 0-.563-.23-.563-.513 0-.284.252-.514.563-.514.31 0 .562.23.562.514 0 .283-.252.513-.563.513zm1.124-2.053c-.31 0-.562-.23-.562-.514 0-.284.252-.513.563-.513.31 0 .562.23.562.513 0 .284-.252.514-.563.514zm-2.25-1.54c-.31 0-.562-.23-.562-.514 0-.284.252-.514.563-.514.31 0 .562.23.562.514 0 .283-.252.513-.563.513z" mask="url(#b)"/>
    </g>
</svg>
